<svg width="1439" height="361" viewBox="0 0 1439 361" fill="none" xmlns="http://www.w3.org/2000/svg">
<path d="M185 245L185.193 244.539L185 245ZM493 201L492.874 201.484L493 201ZM731 353L731.136 353.481L731 353ZM941 289L940.766 288.558L941 289ZM1349 303L1348.66 302.629L1349 303ZM1437 201L1436.5 201.057L1437 201ZM1278.7 106.602C1278.48 106.769 1278.43 107.082 1278.6 107.302L1281.32 110.886C1281.49 111.106 1281.8 111.149 1282.02 110.982C1282.24 110.815 1282.29 110.502 1282.12 110.282L1279.7 107.096L1282.89 104.677C1283.11 104.51 1283.15 104.196 1282.98 103.977C1282.82 103.757 1282.5 103.714 1282.28 103.881L1278.7 106.602ZM1 1C0.531613 1.17497 0.531616 1.17498 0.531621 1.17499C0.531624 1.175 0.53163 1.17501 0.531636 1.17503C0.531648 1.17506 0.531665 1.17511 0.531686 1.17516C0.531729 1.17528 0.53179 1.17544 0.53187 1.17565C0.532029 1.17608 0.532262 1.1767 0.532568 1.17752C0.533181 1.17916 0.534088 1.18158 0.535288 1.18479C0.53769 1.1912 0.541267 1.20075 0.546017 1.2134C0.555517 1.2387 0.569709 1.27644 0.588575 1.32644C0.626307 1.42643 0.682732 1.57544 0.757697 1.77207C0.907626 2.16531 1.13172 2.74898 1.42873 3.51167L2.36057 3.14879C2.06443 2.38836 1.8412 1.80691 1.69209 1.41582C1.61753 1.22027 1.56151 1.07232 1.52418 0.973382C1.50551 0.923913 1.49152 0.886697 1.48221 0.861913C1.47756 0.849521 1.47408 0.840236 1.47177 0.834082C1.47062 0.831005 1.46976 0.828711 1.4692 0.827201C1.46892 0.826447 1.46871 0.825888 1.46857 0.825527C1.4685 0.825346 1.46845 0.825214 1.46842 0.825132C1.46841 0.825091 1.4684 0.825062 1.46839 0.825045C1.46839 0.825037 1.46839 0.825034 1.46839 0.82503C1.46839 0.825029 1.46839 0.825032 1 1ZM3.25004 8.1054C3.80477 9.48316 4.4427 11.0505 5.16229 12.7931L6.08659 12.4114C5.36815 10.6717 4.73133 9.10702 4.17768 7.73191L3.25004 8.1054ZM7.10315 17.4413C7.7212 18.9059 8.38146 20.4562 9.08334 22.0868L10.0019 21.6915C9.30095 20.0631 8.64162 18.5149 8.02447 17.0525L7.10315 17.4413ZM11.1152 26.763C11.7638 28.2419 12.441 29.7731 13.1464 31.3536L14.0596 30.946C13.3551 29.3676 12.6788 27.8383 12.031 26.3613L11.1152 26.763ZM15.2059 35.9286C15.8934 37.4432 16.604 38.9958 17.3372 40.584L18.2451 40.1648C17.5128 38.5786 16.8032 37.0279 16.1164 35.5152L15.2059 35.9286ZM19.4341 45.0895C20.1401 46.5944 20.8647 48.127 21.6078 49.6856L22.5105 49.2552C21.7683 47.6986 21.0446 46.1678 20.3394 44.6648L19.4341 45.0895ZM23.7781 54.2018C24.5033 55.6991 25.2444 57.2174 26.0012 58.7554L26.8985 58.3138C26.1426 56.7778 25.4024 55.2613 24.6781 53.7658L23.7781 54.2018ZM28.2325 63.2544C28.9785 64.7468 29.7384 66.2555 30.5122 67.7793L31.4038 67.3265C30.631 65.8046 29.872 64.2978 29.127 62.8073L28.2325 63.2544ZM32.7985 72.2468C33.5665 73.7357 34.3471 75.2375 35.1403 76.751L36.026 76.2868C35.2339 74.7753 34.4543 73.2754 33.6872 71.7884L32.7985 72.2468ZM37.4796 81.18C38.2705 82.6657 39.0731 84.1614 39.8872 85.6662L40.7667 85.1903C39.9537 83.6876 39.1522 82.1938 38.3623 80.71L37.4796 81.18ZM42.2799 90.0537C43.0882 91.524 43.9071 93.0018 44.7366 94.4863L45.6096 93.9985C44.7812 92.5161 43.9634 91.0403 43.1563 89.572L42.2799 90.0537ZM47.2037 98.8654C48.0298 100.32 48.8657 101.779 49.7114 103.243L50.5773 102.743C49.7328 101.281 48.8981 99.8237 48.0732 98.3715L47.2037 98.8654ZM52.2549 107.61C53.1 109.049 53.9544 110.491 54.818 111.936L55.6764 111.423C54.8141 109.98 53.961 108.54 53.1172 107.104L52.2549 107.61ZM57.4361 116.279C58.3023 117.703 59.1772 119.129 60.0609 120.557L60.9111 120.031C60.0289 118.605 59.1553 117.181 58.2905 115.759L57.4361 116.279ZM62.7367 124.841C63.6308 126.259 64.5333 127.678 65.4443 129.097L66.2858 128.557C65.3764 127.14 64.4753 125.724 63.5826 124.307L62.7367 124.841ZM68.1843 133.324C69.1055 134.732 70.035 136.139 70.9726 137.545L71.8045 136.99C70.8685 135.587 69.9407 134.182 69.0211 132.777L68.1843 133.324ZM73.7837 141.718C74.7287 143.107 75.6816 144.494 76.6424 145.878L77.4639 145.307C76.5049 143.926 75.5538 142.542 74.6105 141.155L73.7837 141.718ZM79.5397 150.008C80.5107 151.378 81.4895 152.745 82.4758 154.107L83.2858 153.52C82.3014 152.161 81.3247 150.797 80.3556 149.43L79.5397 150.008ZM85.4576 158.18C86.4574 159.531 87.4647 160.877 88.4795 162.218L89.2768 161.614C88.2643 160.277 87.2591 158.934 86.2615 157.585L85.4576 158.18ZM91.5462 166.223C92.5767 167.553 93.6146 168.877 94.6599 170.194L95.4432 169.572C94.4004 168.258 93.3649 166.937 92.3367 165.61L91.5462 166.223ZM97.8206 174.128C98.8815 175.432 99.9496 176.728 101.025 178.017L101.793 177.376C100.72 176.091 99.6546 174.798 98.5963 173.497L97.8206 174.128ZM104.289 181.875C105.384 183.153 106.487 184.422 107.596 185.682L108.347 185.02C107.24 183.765 106.14 182.499 105.048 181.225L104.289 181.875ZM110.959 189.444C112.092 190.693 113.233 191.933 114.38 193.161L115.111 192.478C113.967 191.254 112.83 190.018 111.7 188.772L110.959 189.444ZM117.844 196.811C119.018 198.028 120.199 199.234 121.388 200.427L122.096 199.721C120.912 198.532 119.734 197.331 118.564 196.117L117.844 196.811ZM124.975 203.969C126.186 205.144 127.405 206.305 128.63 207.452L129.313 206.722C128.092 205.579 126.879 204.422 125.672 203.251L124.975 203.969ZM132.352 210.871C133.601 211.997 134.857 213.108 136.121 214.202L136.775 213.446C135.517 212.356 134.266 211.25 133.022 210.129L132.352 210.871ZM139.987 217.482C141.283 218.558 142.586 219.617 143.896 220.658L144.518 219.875C143.214 218.839 141.916 217.784 140.626 216.713L139.987 217.482ZM147.893 223.759C149.24 224.779 150.594 225.779 151.956 226.76L152.54 225.948C151.185 224.973 149.838 223.977 148.497 222.962L147.893 223.759ZM156.085 229.654C157.485 230.609 158.892 231.541 160.307 232.451L160.848 231.61C159.441 230.705 158.041 229.777 156.648 228.828L156.085 229.654ZM164.573 235.112C166.027 235.99 167.488 236.844 168.957 237.672L169.448 236.801C167.988 235.978 166.535 235.129 165.09 234.256L164.573 235.112ZM173.385 240.08C174.885 240.865 176.394 241.624 177.909 242.354L178.343 241.453C176.838 240.728 175.34 239.974 173.848 239.194L173.385 240.08ZM182.497 244.469C183.265 244.807 184.035 245.138 184.807 245.461L185.193 244.539C184.427 244.218 183.662 243.889 182.9 243.554L182.497 244.469ZM184.807 245.461C185.596 245.792 186.383 246.114 187.169 246.428L187.54 245.499C186.759 245.187 185.977 244.867 185.193 244.539L184.807 245.461ZM191.864 248.214C193.442 248.784 195.013 249.321 196.578 249.827L196.885 248.875C195.331 248.373 193.771 247.84 192.204 247.274L191.864 248.214ZM201.402 251.29C203.011 251.747 204.614 252.171 206.211 252.562L206.449 251.591C204.864 251.202 203.273 250.782 201.675 250.328L201.402 251.29ZM211.133 253.672C212.771 254.009 214.403 254.313 216.028 254.585L216.193 253.599C214.58 253.329 212.96 253.027 211.335 252.693L211.133 253.672ZM221.015 255.322C222.674 255.535 224.327 255.716 225.974 255.864L226.064 254.868C224.429 254.721 222.789 254.542 221.142 254.331L221.015 255.322ZM230.994 256.222C232.665 256.309 234.329 256.365 235.988 256.391L236.004 255.391C234.357 255.366 232.705 255.31 231.046 255.223L230.994 256.222ZM241.012 256.377C242.684 256.342 244.351 256.277 246.012 256.183L245.956 255.185C244.306 255.278 242.652 255.342 240.991 255.377L241.012 256.377ZM251.016 255.816C252.68 255.666 254.34 255.488 255.994 255.284L255.872 254.291C254.228 254.494 252.579 254.671 250.925 254.82L251.016 255.816ZM260.958 254.593C262.608 254.337 264.254 254.057 265.895 253.753L265.713 252.77C264.081 253.072 262.445 253.35 260.805 253.605L260.958 254.593ZM270.808 252.773C272.439 252.424 274.066 252.054 275.69 251.663L275.456 250.691C273.84 251.08 272.221 251.448 270.599 251.795L270.808 252.773ZM280.544 250.432C282.155 250.004 283.762 249.556 285.366 249.092L285.088 248.131C283.49 248.594 281.89 249.039 280.287 249.466L280.544 250.432ZM290.161 247.649C291.751 247.154 293.338 246.643 294.923 246.117L294.608 245.168C293.029 245.692 291.448 246.201 289.864 246.695L290.161 247.649ZM299.662 244.502C301.233 243.952 302.802 243.39 304.369 242.816L304.025 241.877C302.462 242.449 300.898 243.01 299.332 243.558L299.662 244.502ZM309.059 241.064C310.613 240.472 312.166 239.87 313.719 239.259L313.353 238.329C311.803 238.938 310.254 239.539 308.703 240.129L309.059 241.064ZM318.368 237.405C319.909 236.782 321.451 236.151 322.992 235.515L322.61 234.591C321.071 235.226 319.532 235.856 317.993 236.478L318.368 237.405ZM327.61 233.59C329.143 232.946 330.676 232.297 332.21 231.645L331.818 230.725C330.286 231.376 328.754 232.025 327.223 232.668L327.61 233.59ZM336.809 229.681C338.338 229.025 339.867 228.368 341.397 227.71L341.002 226.791C339.472 227.449 337.943 228.107 336.415 228.762L336.809 229.681ZM345.989 225.735C347.517 225.078 349.047 224.422 350.578 223.767L350.184 222.848C348.653 223.503 347.123 224.159 345.594 224.816L345.989 225.735ZM355.174 221.81C356.706 221.161 358.24 220.515 359.776 219.873L359.39 218.95C357.853 219.593 356.317 220.24 354.784 220.889L355.174 221.81ZM364.389 217.961C365.928 217.33 367.469 216.703 369.014 216.084L368.641 215.155C367.094 215.776 365.55 216.404 364.009 217.036L364.389 217.961ZM373.654 214.246C375.204 213.641 376.757 213.044 378.313 212.456L377.959 211.521C376.4 212.11 374.843 212.708 373.29 213.315L373.654 214.246ZM382.99 210.722C384.554 210.153 386.121 209.595 387.691 209.049L387.363 208.105C385.787 208.652 384.216 209.212 382.649 209.782L382.99 210.722ZM392.414 207.447C393.993 206.926 395.576 206.418 397.163 205.923L396.866 204.969C395.273 205.464 393.684 205.975 392.1 206.498L392.414 207.447ZM401.937 204.485C403.532 204.021 405.132 203.572 406.737 203.141L406.477 202.175C404.866 202.608 403.259 203.059 401.658 203.525L401.937 204.485ZM411.565 201.897C413.177 201.501 414.793 201.122 416.416 200.763L416.2 199.787C414.57 200.148 412.945 200.528 411.326 200.926L411.565 201.897ZM421.297 199.746C422.923 199.428 424.555 199.13 426.193 198.854L426.027 197.868C424.38 198.145 422.74 198.445 421.105 198.764L421.297 199.746ZM431.122 198.092C432.76 197.861 434.405 197.654 436.055 197.469L435.945 196.476C434.284 196.661 432.63 196.87 430.983 197.101L431.122 198.092ZM441.022 196.99C442.667 196.855 444.319 196.745 445.978 196.661L445.927 195.662C444.258 195.747 442.596 195.858 440.94 195.993L441.022 196.99ZM450.969 196.485C452.615 196.453 454.268 196.447 455.929 196.468L455.941 195.468C454.27 195.447 452.607 195.453 450.95 195.485L450.969 196.485ZM460.93 196.612C462.569 196.686 464.216 196.787 465.869 196.916L465.947 195.919C464.282 195.789 462.625 195.687 460.975 195.613L460.93 196.612ZM470.853 197.387C472.481 197.568 474.117 197.776 475.759 198.014L475.902 197.024C474.249 196.785 472.602 196.575 470.963 196.393L470.853 197.387ZM480.697 198.809C482.311 199.096 483.932 199.412 485.56 199.755L485.767 198.777C484.128 198.431 482.497 198.114 480.872 197.825L480.697 198.809ZM490.424 200.864C491.239 201.063 492.055 201.27 492.874 201.484L493.126 200.516C492.303 200.301 491.482 200.093 490.662 199.893L490.424 200.864ZM492.874 201.484C493.699 201.7 494.518 201.919 495.331 202.142L495.596 201.177C494.779 200.954 493.956 200.733 493.126 200.516L492.874 201.484ZM500.132 203.52C501.708 203.993 503.258 204.48 504.784 204.98L505.095 204.029C503.561 203.527 502.003 203.038 500.42 202.563L500.132 203.52ZM509.495 206.59C511.071 207.153 512.621 207.73 514.144 208.321L514.506 207.388C512.974 206.794 511.416 206.214 509.831 205.649L509.495 206.59ZM518.645 210.138C520.208 210.795 521.743 211.467 523.25 212.154L523.665 211.244C522.149 210.553 520.605 209.877 519.032 209.216L518.645 210.138ZM527.686 214.256C529.182 214.993 530.649 215.745 532.088 216.51L532.557 215.628C531.109 214.857 529.633 214.101 528.128 213.359L527.686 214.256ZM536.425 218.909C537.855 219.73 539.256 220.566 540.629 221.415L541.155 220.565C539.773 219.71 538.362 218.869 536.923 218.042L536.425 218.909ZM544.824 224.109C546.193 225.021 547.532 225.946 548.844 226.885L549.426 226.072C548.105 225.127 546.756 224.195 545.378 223.276L544.824 224.109ZM552.848 229.857C554.157 230.864 555.436 231.883 556.687 232.915L557.323 232.144C556.064 231.105 554.776 230.078 553.458 229.065L552.848 229.857ZM560.463 236.139C561.702 237.234 562.912 238.341 564.095 239.459L564.782 238.732C563.591 237.606 562.372 236.492 561.125 235.39L560.463 236.139ZM567.641 242.921C568.805 244.096 569.941 245.281 571.053 246.476L571.785 245.795C570.667 244.592 569.523 243.399 568.351 242.217L567.641 242.921ZM574.369 250.155C575.458 251.399 576.52 252.652 577.559 253.913L578.331 253.277C577.286 252.009 576.217 250.749 575.122 249.496L574.369 250.155ZM580.658 257.781C581.673 259.085 582.665 260.394 583.636 261.709L584.44 261.115C583.464 259.794 582.467 258.477 581.447 257.167L580.658 257.781ZM586.534 265.735C587.483 267.086 588.411 268.441 589.322 269.799L590.152 269.242C589.238 267.879 588.306 266.518 587.352 265.161L586.534 265.735ZM592.048 273.951C592.942 275.341 593.819 276.732 594.682 278.123L595.531 277.596C594.667 276.201 593.787 274.805 592.889 273.41L592.048 273.951ZM597.268 282.363C598.122 283.783 598.961 285.202 599.79 286.616L600.653 286.111C599.823 284.693 598.981 283.272 598.125 281.848L597.268 282.363ZM602.279 290.906C603.108 292.347 603.927 293.782 604.739 295.21L605.609 294.716C604.796 293.287 603.976 291.85 603.146 290.407L602.279 290.906ZM607.182 299.513C608.005 300.965 608.824 302.407 609.64 303.837L610.508 303.342C609.693 301.913 608.875 300.471 608.052 299.02L607.182 299.513ZM612.101 308.122C612.94 309.57 613.779 311.003 614.621 312.42L615.481 311.909C614.641 310.496 613.804 309.066 612.967 307.621L612.101 308.122ZM617.189 316.668C618.063 318.086 618.944 319.485 619.834 320.862L620.674 320.319C619.788 318.949 618.911 317.556 618.041 316.143L617.189 316.668ZM622.596 325.015C623.539 326.39 624.496 327.739 625.47 329.06L626.275 328.467C625.309 327.156 624.358 325.816 623.421 324.449L622.596 325.015ZM628.504 333.008C629.552 334.314 630.622 335.586 631.718 336.823L632.466 336.159C631.382 334.936 630.323 333.676 629.284 332.383L628.504 333.008ZM635.118 340.453C636.294 341.638 637.501 342.783 638.743 343.884L639.406 343.135C638.181 342.049 636.99 340.92 635.828 339.749L635.118 340.453ZM642.588 347.06C643.904 348.07 645.26 349.033 646.658 349.946L647.205 349.109C645.828 348.21 644.494 347.262 643.197 346.266L642.588 347.06ZM650.949 352.512C652.391 353.297 653.875 354.032 655.407 354.715L655.814 353.801C654.307 353.13 652.846 352.407 651.428 351.634L650.949 352.512ZM660.058 356.567C661.599 357.112 663.186 357.607 664.821 358.049L665.082 357.084C663.471 356.648 661.908 356.16 660.391 355.624L660.058 356.567ZM669.651 359.175C671.27 359.493 672.933 359.764 674.643 359.986L674.772 358.994C673.083 358.775 671.441 358.508 669.844 358.193L669.651 359.175ZM679.516 360.472C681.162 360.59 682.849 360.664 684.58 360.695L684.598 359.695C682.884 359.665 681.215 359.591 679.587 359.475L679.516 360.472ZM689.459 360.666C691.117 360.619 692.812 360.533 694.546 360.409L694.475 359.411C692.754 359.535 691.073 359.62 689.43 359.667L689.459 360.666ZM699.372 359.972C701.014 359.793 702.689 359.582 704.399 359.336L704.257 358.346C702.558 358.59 700.894 358.801 699.264 358.978L699.372 359.972ZM709.225 358.569C710.826 358.29 712.456 357.983 714.116 357.648L713.918 356.668C712.267 357.001 710.646 357.307 709.054 357.584L709.225 358.569ZM719.044 356.586C720.593 356.233 722.167 355.856 723.766 355.454L723.522 354.484C721.93 354.884 720.363 355.26 718.822 355.611L719.044 356.586ZM728.641 354.176C729.466 353.95 730.298 353.719 731.136 353.481L730.864 352.519C730.028 352.756 729.2 352.987 728.377 353.211L728.641 354.176ZM731.136 353.481C731.958 353.248 732.774 353.018 733.585 352.79L733.315 351.828C732.503 352.055 731.686 352.286 730.864 352.519L731.136 353.481ZM738.397 351.456C740.033 351.007 741.65 350.569 743.248 350.141L742.989 349.175C741.389 349.603 739.771 350.042 738.132 350.492L738.397 351.456ZM748.045 348.87C749.694 348.439 751.323 348.018 752.931 347.607L752.684 346.638C751.073 347.05 749.443 347.471 747.792 347.903L748.045 348.87ZM757.776 346.386C759.412 345.978 761.029 345.581 762.625 345.193L762.389 344.221C760.791 344.609 759.173 345.007 757.534 345.415L757.776 346.386ZM767.514 344.021C769.155 343.632 770.775 343.253 772.376 342.884L772.151 341.909C770.549 342.279 768.926 342.659 767.284 343.047L767.514 344.021ZM777.247 341.772C778.902 341.399 780.537 341.035 782.152 340.679L781.937 339.703C780.32 340.059 778.684 340.423 777.027 340.797L777.247 341.772ZM787.041 339.614C788.687 339.259 790.314 338.911 791.922 338.571L791.715 337.592C790.105 337.933 788.478 338.281 786.83 338.636L787.041 339.614ZM796.828 337.54C798.483 337.195 800.12 336.857 801.74 336.522L801.538 335.543C799.917 335.877 798.28 336.216 796.624 336.561L796.828 337.54ZM806.645 335.515C808.295 335.177 809.927 334.843 811.547 334.511L811.346 333.531C809.728 333.863 808.093 334.197 806.445 334.535L806.645 335.515ZM816.447 333.504C818.095 333.164 819.73 332.825 821.355 332.486L821.15 331.507C819.527 331.846 817.892 332.185 816.245 332.525L816.447 333.504ZM826.261 331.45C827.902 331.1 829.534 330.748 831.16 330.391L830.946 329.414C829.322 329.77 827.692 330.123 826.053 330.472L826.261 331.45ZM836.051 329.3C837.682 328.93 839.309 328.554 840.934 328.17L840.704 327.197C839.082 327.58 837.458 327.956 835.83 328.325L836.051 329.3ZM845.807 326.994C847.426 326.594 849.047 326.184 850.67 325.764L850.419 324.796C848.8 325.215 847.183 325.624 845.567 326.023L845.807 326.994ZM855.518 324.476C857.121 324.039 858.729 323.59 860.344 323.127L860.069 322.165C858.458 322.627 856.854 323.075 855.255 323.511L855.518 324.476ZM865.152 321.712C866.738 321.233 868.334 320.739 869.941 320.228L869.638 319.275C868.036 319.784 866.445 320.277 864.863 320.754L865.152 321.712ZM874.713 318.674C876.286 318.149 877.871 317.608 879.47 317.048L879.14 316.104C877.546 316.662 875.965 317.202 874.396 317.726L874.713 318.674ZM884.186 315.36C885.733 314.793 887.295 314.209 888.873 313.607L888.516 312.673C886.943 313.274 885.385 313.856 883.842 314.421L884.186 315.36ZM893.546 311.785C895.086 311.172 896.642 310.542 898.215 309.892L897.833 308.968C896.264 309.616 894.713 310.245 893.177 310.855L893.546 311.785ZM902.821 307.956C904.334 307.309 905.864 306.644 907.411 305.96L907.007 305.045C905.463 305.727 903.937 306.391 902.428 307.036L902.821 307.956ZM912.008 303.897C913.503 303.216 915.015 302.517 916.545 301.801L916.12 300.895C914.594 301.61 913.085 302.307 911.593 302.987L912.008 303.897ZM921.066 299.654C922.563 298.933 924.078 298.196 925.611 297.44L925.169 296.543C923.639 297.298 922.127 298.034 920.632 298.753L921.066 299.654ZM930.057 295.223C931.536 294.478 933.031 293.716 934.543 292.938L934.086 292.049C932.576 292.826 931.083 293.586 929.607 294.33L930.057 295.223ZM938.979 290.632C939.726 290.239 940.478 289.842 941.234 289.442L940.766 288.558C940.011 288.958 939.26 289.354 938.514 289.746L938.979 290.632ZM941.234 289.442C941.985 289.044 942.735 288.654 943.486 288.271L943.031 287.38C942.276 287.765 941.521 288.158 940.766 288.558L941.234 289.442ZM947.988 286.063C949.489 285.357 950.99 284.679 952.49 284.03L952.093 283.112C950.583 283.766 949.073 284.447 947.562 285.158L947.988 286.063ZM957.086 282.131C958.647 281.515 960.208 280.929 961.769 280.373L961.433 279.431C959.862 279.991 958.29 280.581 956.719 281.2L957.086 282.131ZM966.451 278.791C968.042 278.283 969.633 277.805 971.224 277.355L970.952 276.393C969.35 276.846 967.749 277.327 966.147 277.839L966.451 278.791ZM976.045 276.08C977.652 275.684 979.259 275.316 980.865 274.977L980.659 273.998C979.041 274.34 977.424 274.71 975.806 275.109L976.045 276.08ZM985.768 274.026C987.407 273.736 989.045 273.475 990.683 273.241L990.541 272.251C988.892 272.486 987.243 272.75 985.594 273.041L985.768 274.026ZM995.602 272.618C997.258 272.436 998.914 272.28 1000.57 272.151L1000.49 271.154C998.826 271.284 997.159 271.441 995.493 271.624L995.602 272.618ZM1005.53 271.84C1007.19 271.762 1008.85 271.709 1010.5 271.68L1010.49 270.68C1008.82 270.709 1007.15 270.762 1005.49 270.841L1005.53 271.84ZM1015.48 271.666C1017.14 271.686 1018.8 271.729 1020.46 271.794L1020.5 270.795C1018.83 270.729 1017.17 270.686 1015.5 270.667L1015.48 271.666ZM1025.43 272.058C1027.09 272.168 1028.74 272.299 1030.4 272.452L1030.49 271.456C1028.82 271.303 1027.16 271.17 1025.5 271.06L1025.43 272.058ZM1035.35 272.97C1037 273.162 1038.64 273.373 1040.29 273.604L1040.43 272.614C1038.78 272.382 1037.12 272.169 1035.47 271.977L1035.35 272.97ZM1045.22 274.351C1046.85 274.617 1048.49 274.902 1050.13 275.203L1050.31 274.219C1048.67 273.917 1047.02 273.631 1045.38 273.364L1045.22 274.351ZM1055.01 276.151C1056.64 276.484 1058.27 276.832 1059.9 277.195L1060.11 276.219C1058.48 275.855 1056.85 275.505 1055.21 275.172L1055.01 276.151ZM1064.75 278.324C1066.36 278.713 1067.97 279.116 1069.58 279.532L1069.83 278.564C1068.22 278.146 1066.6 277.742 1064.98 277.351L1064.75 278.324ZM1074.41 280.818C1076.01 281.257 1077.6 281.707 1079.2 282.169L1079.48 281.208C1077.88 280.745 1076.28 280.294 1074.67 279.854L1074.41 280.818ZM1083.98 283.585C1085.58 284.068 1087.17 284.56 1088.76 285.062L1089.06 284.109C1087.46 283.605 1085.87 283.112 1084.27 282.628L1083.98 283.585ZM1093.5 286.587C1095.08 287.105 1096.66 287.631 1098.23 288.164L1098.55 287.217C1096.97 286.682 1095.39 286.155 1093.81 285.637L1093.5 286.587ZM1102.96 289.784C1104.53 290.33 1106.09 290.883 1107.66 291.441L1108 290.499C1106.43 289.94 1104.86 289.386 1103.28 288.84L1102.96 289.784ZM1112.36 293.134C1113.92 293.703 1115.48 294.277 1117.04 294.856L1117.39 293.918C1115.83 293.339 1114.26 292.764 1112.7 292.194L1112.36 293.134ZM1121.72 296.603C1123.28 297.189 1124.83 297.779 1126.39 298.371L1126.74 297.437C1125.19 296.844 1123.63 296.254 1122.07 295.667L1121.72 296.603ZM1131.05 300.157C1132.6 300.755 1134.16 301.354 1135.71 301.955L1136.07 301.022C1134.52 300.421 1132.96 299.821 1131.41 299.224L1131.05 300.157ZM1140.36 303.759C1141.92 304.363 1143.47 304.968 1145.02 305.572L1145.38 304.64C1143.83 304.036 1142.28 303.431 1140.72 302.827L1140.36 303.759ZM1149.68 307.382C1151.23 307.985 1152.78 308.587 1154.33 309.186L1154.69 308.253C1153.14 307.654 1151.59 307.053 1150.04 306.45L1149.68 307.382ZM1159 310.987C1160.55 311.585 1162.11 312.179 1163.66 312.77L1164.01 311.835C1162.46 311.245 1160.91 310.651 1159.36 310.054L1159 310.987ZM1168.33 314.536C1169.9 315.124 1171.46 315.707 1173.02 316.284L1173.37 315.346C1171.81 314.77 1170.25 314.188 1168.68 313.6L1168.33 314.536ZM1177.7 317.998C1179.28 318.568 1180.85 319.131 1182.42 319.687L1182.75 318.744C1181.18 318.189 1179.61 317.627 1178.04 317.058L1177.7 317.998ZM1187.14 321.336C1188.71 321.878 1190.28 322.411 1191.85 322.934L1192.17 321.986C1190.6 321.463 1189.03 320.931 1187.46 320.391L1187.14 321.336ZM1196.63 324.498C1198.22 325.009 1199.8 325.51 1201.39 325.999L1201.68 325.043C1200.1 324.555 1198.52 324.056 1196.93 323.546L1196.63 324.498ZM1206.17 327.436C1207.78 327.909 1209.39 328.368 1211 328.813L1211.26 327.849C1209.66 327.406 1208.06 326.948 1206.45 326.477L1206.17 327.436ZM1215.81 330.105C1217.43 330.527 1219.05 330.932 1220.67 331.322L1220.91 330.349C1219.29 329.962 1217.68 329.557 1216.06 329.137L1215.81 330.105ZM1225.55 332.445C1227.18 332.803 1228.81 333.143 1230.43 333.464L1230.62 332.483C1229.01 332.163 1227.39 331.825 1225.77 331.468L1225.55 332.445ZM1235.37 334.382C1237.02 334.668 1238.66 334.933 1240.3 335.176L1240.45 334.187C1238.82 333.945 1237.18 333.681 1235.55 333.397L1235.37 334.382ZM1245.27 335.846C1246.93 336.047 1248.59 336.225 1250.25 336.377L1250.34 335.382C1248.7 335.23 1247.04 335.053 1245.39 334.853L1245.27 335.846ZM1255.23 336.76C1256.91 336.862 1258.58 336.938 1260.25 336.986L1260.28 335.986C1258.62 335.939 1256.96 335.864 1255.29 335.762L1255.23 336.76ZM1265.25 337.044C1266.92 337.034 1268.59 336.995 1270.26 336.925L1270.22 335.926C1268.56 335.995 1266.91 336.034 1265.24 336.044L1265.25 337.044ZM1275.26 336.62C1276.93 336.486 1278.59 336.321 1280.25 336.121L1280.13 335.128C1278.48 335.326 1276.83 335.491 1275.18 335.623L1275.26 336.62ZM1285.21 335.423C1286.86 335.156 1288.5 334.854 1290.15 334.516L1289.94 333.537C1288.31 333.872 1286.68 334.171 1285.05 334.436L1285.21 335.423ZM1295.02 333.407C1296.63 333.003 1298.25 332.562 1299.86 332.083L1299.57 331.125C1297.98 331.599 1296.38 332.036 1294.77 332.437L1295.02 333.407ZM1304.63 330.55C1306.2 330.011 1307.76 329.434 1309.31 328.82L1308.95 327.89C1307.4 328.499 1305.86 329.07 1304.31 329.605L1304.63 330.55ZM1313.98 326.864C1315.48 326.196 1316.97 325.491 1318.47 324.749L1318.02 323.854C1316.54 324.589 1315.06 325.288 1313.57 325.95L1313.98 326.864ZM1322.91 322.425C1324.37 321.622 1325.83 320.782 1327.29 319.904L1326.77 319.048C1325.33 319.919 1323.88 320.752 1322.43 321.549L1322.91 322.425ZM1331.47 317.271C1332.87 316.357 1334.25 315.408 1335.64 314.422L1335.06 313.607C1333.68 314.586 1332.31 315.528 1330.93 316.435L1331.47 317.271ZM1339.67 311.442C1340.97 310.45 1342.26 309.424 1343.55 308.365L1342.92 307.593C1341.63 308.645 1340.35 309.663 1339.07 310.649L1339.67 311.442ZM1347.41 305.087C1348.05 304.523 1348.69 303.951 1349.34 303.371L1348.66 302.629C1348.03 303.207 1347.39 303.775 1346.75 304.335L1347.41 305.087ZM1349.34 303.371C1349.95 302.817 1350.56 302.272 1351.17 301.735L1350.5 300.985C1349.89 301.525 1349.28 302.073 1348.66 302.629L1349.34 303.371ZM1354.84 298.585C1356.1 297.537 1357.35 296.521 1358.6 295.537L1357.98 294.752C1356.72 295.742 1355.46 296.763 1354.2 297.817L1354.84 298.585ZM1362.45 292.573C1363.77 291.59 1365.08 290.639 1366.38 289.717L1365.81 288.9C1364.5 289.827 1363.18 290.783 1361.86 291.772L1362.45 292.573ZM1370.38 286.962C1371.75 286.047 1373.1 285.162 1374.44 284.304L1373.9 283.461C1372.55 284.323 1371.19 285.212 1369.82 286.132L1370.38 286.962ZM1378.56 281.734C1379.96 280.878 1381.35 280.049 1382.73 279.243L1382.22 278.38C1380.84 279.189 1379.45 280.021 1378.04 280.88L1378.56 281.734ZM1386.94 276.818C1388.37 276.006 1389.78 275.216 1391.18 274.442L1390.69 273.568C1389.3 274.342 1387.88 275.134 1386.44 275.948L1386.94 276.818ZM1395.44 272.096C1396.88 271.302 1398.31 270.523 1399.7 269.753L1399.22 268.877C1397.82 269.647 1396.4 270.425 1394.96 271.219L1395.44 272.096ZM1403.95 267.381C1405.39 266.568 1406.79 265.757 1408.16 264.944L1407.65 264.084C1406.29 264.893 1404.89 265.7 1403.46 266.511L1403.95 267.381ZM1412.33 262.386C1413.72 261.492 1415.08 260.585 1416.39 259.657L1415.81 258.841C1414.52 259.758 1413.17 260.656 1411.79 261.543L1412.33 262.386ZM1420.29 256.705C1421.57 255.663 1422.8 254.587 1423.97 253.467L1423.28 252.745C1422.13 253.845 1420.92 254.902 1419.66 255.928L1420.29 256.705ZM1427.34 249.895C1428.4 248.65 1429.4 247.348 1430.32 245.978L1429.49 245.42C1428.59 246.757 1427.62 248.029 1426.58 249.247L1427.34 249.895ZM1432.82 241.747C1433.55 240.323 1434.22 238.83 1434.81 237.259L1433.87 236.905C1433.29 238.441 1432.64 239.9 1431.93 241.29L1432.82 241.747ZM1436.31 232.576C1436.72 231.043 1437.06 229.443 1437.35 227.768L1436.37 227.598C1436.08 229.245 1435.74 230.816 1435.34 232.319L1436.31 232.576ZM1438 222.9C1438.15 221.331 1438.26 219.704 1438.31 218.013L1437.31 217.979C1437.26 219.65 1437.15 221.257 1437.01 222.804L1438 222.9ZM1438.35 213.135C1438.32 211.566 1438.25 209.947 1438.15 208.274L1437.15 208.336C1437.25 209.994 1437.32 211.599 1437.35 213.153L1438.35 213.135ZM1437.76 203.427C1437.68 202.611 1437.59 201.783 1437.5 200.943L1436.5 201.057C1436.6 201.892 1436.69 202.714 1436.77 203.525L1437.76 203.427ZM1437.5 200.943C1437.4 200.074 1437.28 199.212 1437.14 198.358L1436.15 198.518C1436.29 199.357 1436.41 200.204 1436.5 201.057L1437.5 200.943ZM1436.08 193.305C1435.65 191.626 1435.14 189.977 1434.56 188.358L1433.62 188.695C1434.19 190.286 1434.69 191.906 1435.11 193.555L1436.08 193.305ZM1432.61 183.57C1431.89 182.008 1431.1 180.475 1430.25 178.97L1429.38 179.461C1430.22 180.942 1430.99 182.451 1431.7 183.988L1432.61 183.57ZM1427.54 174.569C1426.59 173.144 1425.58 171.747 1424.51 170.378L1423.72 170.991C1424.77 172.343 1425.77 173.721 1426.71 175.125L1427.54 174.569ZM1421.22 166.414C1420.09 165.135 1418.92 163.881 1417.7 162.652L1416.99 163.357C1418.19 164.573 1419.36 165.812 1420.48 167.076L1421.22 166.414ZM1413.96 159.084C1412.7 157.938 1411.39 156.816 1410.06 155.716L1409.42 156.487C1410.75 157.578 1412.04 158.69 1413.29 159.825L1413.96 159.084ZM1406.02 152.529C1404.66 151.499 1403.26 150.49 1401.85 149.502L1401.27 150.322C1402.68 151.304 1404.07 152.305 1405.42 153.327L1406.02 152.529ZM1397.56 146.633C1396.13 145.708 1394.68 144.802 1393.2 143.916L1392.69 144.773C1394.15 145.654 1395.6 146.554 1397.02 147.473L1397.56 146.633ZM1388.75 141.328C1387.26 140.49 1385.75 139.67 1384.23 138.867L1383.76 139.752C1385.27 140.55 1386.77 141.366 1388.26 142.2L1388.75 141.328ZM1379.65 136.528C1378.11 135.767 1376.57 135.023 1375.01 134.295L1374.59 135.201C1376.14 135.925 1377.68 136.666 1379.2 137.424L1379.65 136.528ZM1370.33 132.168C1368.76 131.475 1367.18 130.798 1365.6 130.137L1365.22 131.059C1366.79 131.718 1368.36 132.392 1369.93 133.083L1370.33 132.168ZM1360.84 128.198C1359.24 127.565 1357.64 126.948 1356.05 126.347L1355.69 127.283C1357.29 127.882 1358.88 128.497 1360.47 129.128L1360.84 128.198ZM1351.21 124.573C1349.59 123.993 1347.97 123.43 1346.36 122.882L1346.04 123.829C1347.65 124.375 1349.26 124.937 1350.88 125.515L1351.21 124.573ZM1341.49 121.265C1339.84 120.732 1338.2 120.214 1336.58 119.713L1336.28 120.669C1337.9 121.169 1339.54 121.684 1341.18 122.217L1341.49 121.265ZM1331.65 118.234C1330 117.748 1328.36 117.279 1326.74 116.827L1326.47 117.791C1328.08 118.242 1329.72 118.709 1331.37 119.194L1331.65 118.234ZM1321.76 115.472C1320.07 115.022 1318.4 114.592 1316.77 114.18L1316.53 115.149C1318.15 115.56 1319.81 115.99 1321.5 116.438L1321.76 115.472ZM1311.78 112.952C1310.07 112.542 1308.4 112.153 1306.78 111.786L1306.56 112.761C1308.17 113.127 1309.84 113.515 1311.55 113.924L1311.78 112.952ZM1301.78 110.679C1300.02 110.302 1298.34 109.953 1296.74 109.63L1296.54 110.611C1298.13 110.932 1299.81 111.281 1301.57 111.657L1301.78 110.679ZM1291.68 108.639C1289.8 108.286 1288.11 107.979 1286.61 107.718L1286.44 108.703C1287.93 108.964 1289.62 109.269 1291.49 109.622L1291.68 108.639ZM1281.52 106.872C1280.73 106.747 1280.11 106.656 1279.7 106.595C1279.49 106.565 1279.33 106.542 1279.23 106.527C1279.18 106.52 1279.14 106.514 1279.11 106.51C1279.1 106.508 1279.09 106.507 1279.08 106.506C1279.07 106.506 1279.07 106.505 1279.07 106.505C1279.07 106.505 1279.07 106.505 1279.07 106.505C1279.07 106.505 1279.07 106.505 1279.07 106.505C1279.07 106.505 1279.07 106.505 1279.07 106.505C1279.07 106.505 1279.07 106.505 1279.07 106.505C1279.07 106.505 1279.07 106.505 1279 107C1278.93 107.495 1278.93 107.495 1278.93 107.495C1278.93 107.495 1278.93 107.495 1278.93 107.495C1278.93 107.495 1278.93 107.495 1278.93 107.495C1278.93 107.495 1278.93 107.496 1278.93 107.496C1278.94 107.496 1278.94 107.496 1278.94 107.497C1278.95 107.498 1278.96 107.499 1278.97 107.501C1279 107.504 1279.04 107.51 1279.09 107.517C1279.19 107.532 1279.35 107.554 1279.55 107.584C1279.97 107.645 1280.58 107.736 1281.37 107.86L1281.52 106.872Z" fill="#9A54BC"/>
</svg>
